<?xml version="1.0" encoding="UTF-8"?>
<svg id="Camada_1" data-name="Camada 1" xmlns="http://www.w3.org/2000/svg" viewBox="0 0 175.35 32">
  <defs>
    <style>
      .cls-1 {
        opacity: .9;
      }

      .cls-2, .cls-3, .cls-4 {
        stroke-width: 0px;
      }

      .cls-5 {
        opacity: .7;
      }

      .cls-3 {
        fill: #3c50e0;
      }

      .cls-4 {
        fill: #fff;
      }
    </style>
  </defs>
  <path class="cls-2" d="m44,9.18h6.28v17.98h3.75V9.18h6.28v-3.46h-16.31v3.46Z"/>
  <path class="cls-2" d="m64.5,27.54c2.26,0,4.22-1.03,4.84-2.52l.26,2.14h3.14v-8.8c0-4.02-2.41-6.13-6.31-6.13s-6.51,2.05-6.51,5.19h3.05c0-1.53,1.17-2.41,3.29-2.41,1.82,0,2.99.79,2.99,2.76v.32l-4.34.32c-3.43.26-5.37,1.94-5.37,4.61s1.88,4.52,4.96,4.52Zm1.17-2.7c-1.61,0-2.49-.65-2.49-1.97,0-1.17.85-1.91,3.08-2.11l3.02-.23v.76c0,2.23-1.41,3.55-3.61,3.55Z"/>
  <path class="cls-2" d="m78.05,9.76c1.17,0,2.14-.97,2.14-2.17s-.97-2.14-2.14-2.14c-1.23,0-2.2.94-2.2,2.14s.97,2.17,2.2,2.17Zm-1.79,17.39h3.58v-14.49h-3.58v14.49Z"/>
  <path class="cls-2" d="m87.14,27.16V5.33h-3.55v21.82h3.55Z"/>
  <path class="cls-2" d="m93.27,27.16l1.73-4.96h8.01l1.73,4.96h3.96l-7.74-21.44h-3.84l-7.74,21.44h3.9Zm5.28-15.05c.21-.59.38-1.23.47-1.64.06.44.26,1.09.44,1.64l2.46,6.92h-5.81l2.43-6.92Z"/>
  <path class="cls-2" d="m116.16,27.54c2.2,0,4.08-.97,4.96-2.64l.23,2.26h3.29V5.33h-3.55v9.18c-.91-1.44-2.7-2.29-4.72-2.29-4.37,0-7.01,3.23-7.01,7.74s2.61,7.57,6.81,7.57Zm.79-3.29c-2.49,0-4.02-1.82-4.02-4.4s1.53-4.43,4.02-4.43,4.11,1.82,4.11,4.43-1.61,4.4-4.11,4.4Z"/>
  <path class="cls-2" d="m131.94,27.16v-8.21c0-2.35,1.38-3.46,3.08-3.46s2.79,1.09,2.79,3.11v8.57h3.58v-8.21c0-2.38,1.32-3.49,3.05-3.49s2.82,1.09,2.82,3.17v8.54h3.55v-9.47c0-3.34-1.94-5.46-5.46-5.46-2.2,0-3.9,1.09-4.63,2.76-.76-1.67-2.29-2.76-4.49-2.76-2.08,0-3.55.94-4.28,2.14l-.29-1.7h-3.28v14.49h3.58Z"/>
  <path class="cls-2" d="m156.11,9.76c1.17,0,2.14-.97,2.14-2.17s-.97-2.14-2.14-2.14c-1.23,0-2.2.94-2.2,2.14s.97,2.17,2.2,2.17Zm-1.79,17.39h3.58v-14.49h-3.58v14.49Z"/>
  <path class="cls-2" d="m165.17,27.16v-7.8c0-2.35,1.35-3.87,3.55-3.87,1.85,0,3.05,1.17,3.05,3.61v8.07h3.58v-8.92c0-3.75-1.88-6.01-5.51-6.01-1.97,0-3.73.85-4.64,2.32l-.29-1.88h-3.32v14.49h3.58Z"/>
  <path class="cls-3" d="m0,8.42C0,3.77,3.77,0,8.42,0h15.16c4.65,0,8.42,3.77,8.42,8.42v15.16c0,4.65-3.77,8.42-8.42,8.42h-15.16c-4.65,0-8.42-3.77-8.42-8.42v-15.16Z"/>
  <path class="cls-4" d="m8.42,8.42c0-.93.75-1.68,1.68-1.68h0c.93,0,1.68.75,1.68,1.68v15.16c0,.93-.75,1.68-1.68,1.68h0c-.93,0-1.68-.75-1.68-1.68v-15.16Z"/>
  <g class="cls-1">
    <path class="cls-4" d="m14.74,15.16c0-.93.75-1.68,1.68-1.68h0c.93,0,1.68.75,1.68,1.68v8.42c0,.93-.75,1.68-1.68,1.68h0c-.93,0-1.68-.75-1.68-1.68v-8.42Z"/>
  </g>
  <g class="cls-5">
    <path class="cls-4" d="m21.05,10.95c0-.93.75-1.68,1.68-1.68h0c.93,0,1.68.75,1.68,1.68v12.63c0,.93-.75,1.68-1.68,1.68h0c-.93,0-1.68-.75-1.68-1.68v-12.63Z"/>
  </g>
</svg>