<?xml version="1.0" encoding="UTF-8"?>
<svg id="Camada_1" data-name="Camada 1" xmlns="http://www.w3.org/2000/svg" viewBox="0 0 128 32">
  <defs>
    <style>
      .cls-1 {
        opacity: .9;
      }

      .cls-2, .cls-3, .cls-4 {
        stroke-width: 0px;
      }

      .cls-5 {
        opacity: .7;
      }

      .cls-3 {
        fill: #3c50e0;
      }

      .cls-4 {
        fill: #fff;
      }
    </style>
  </defs>
  <path class="cls-3" d="m0,8.4C0,3.8,3.8,0,8.4,0h15.2c4.6,0,8.4,3.8,8.4,8.4v15.2c0,4.7-3.8,8.4-8.4,8.4h-15.2c-4.6,0-8.4-3.8-8.4-8.4v-15.2Z"/>
  <path class="cls-4" d="m8.4,8.4c0-.9.8-1.7,1.7-1.7h0c.9,0,1.7.8,1.7,1.7v15.2c0,.9-.8,1.7-1.7,1.7h0c-.9,0-1.7-.8-1.7-1.7v-15.2Z"/>
  <g class="cls-1">
    <path class="cls-4" d="m14.7,15.2c0-.9.8-1.7,1.7-1.7h0c.9,0,1.7.8,1.7,1.7v8.4c0,.9-.8,1.7-1.7,1.7h0c-.9,0-1.7-.8-1.7-1.7v-8.4Z"/>
  </g>
  <g class="cls-5">
    <path class="cls-4" d="m21.1,10.9c0-.9.8-1.7,1.7-1.7h0c.9,0,1.7.8,1.7,1.7v12.6c0,.9-.8,1.7-1.7,1.7h0c-.9,0-1.7-.8-1.7-1.7v-12.6Z"/>
  </g>
  <g>
    <path class="cls-2" d="m35.4,17c0-7.9,5.3-12.7,12.1-12.7,3.6,0,6.1,1.5,7.7,3.1l-2.4,2.8c-1.3-1.2-2.8-2.1-5.2-2.1-4.5,0-7.6,3.3-7.6,8.8s2.7,8.9,7.8,8.9c1.4,0,2.8-.4,3.6-1.1v-5.2h-4.8v-3.5h8.9v10.7c-1.7,1.6-4.7,2.9-8.2,2.9-6.7-.1-11.9-4.5-11.9-12.6Z"/>
    <path class="cls-2" d="m60,17c0-7.9,5.2-12.7,11.7-12.7,3.2,0,5.8,1.5,7.4,3.1l-2.4,2.8c-1.3-1.2-2.8-2.1-4.8-2.1-4.2,0-7.1,3.3-7.1,8.8s2.8,8.9,7,8.9c2.3,0,4-1,5.5-2.5l2.4,2.7c-2.1,2.3-4.7,3.5-8.1,3.5-6.5,0-11.6-4.4-11.6-12.5Z"/>
    <path class="cls-2" d="m81.2,16.9c0-7.8,4.6-12.5,11.3-12.5s11.3,4.7,11.3,12.5-4.6,12.7-11.3,12.7-11.3-4.9-11.3-12.7Zm17.9,0c0-5.4-2.6-8.7-6.6-8.7s-6.6,3.3-6.6,8.7,2.6,8.9,6.6,8.9,6.6-3.5,6.6-8.9Z"/>
    <path class="cls-2" d="m108.9,4.8h4.7l7.9,13.6,2.6,5.2h.2c-.2-2.5-.6-5.6-.6-8.3V4.8h4.3v24.3h-4.7l-7.9-13.7-2.6-5.2h-.2c.2,2.6.6,5.5.6,8.2v10.6h-4.3V4.8Z"/>
  </g>
</svg>