<?xml version="1.0" encoding="utf-8"?>
<!-- Generator: Adobe Illustrator 27.9.0, SVG Export Plug-In . SVG Version: 6.00 Build 0)  -->
<svg version="1.1" id="Camada_1" xmlns="http://www.w3.org/2000/svg" xmlns:xlink="http://www.w3.org/1999/xlink" x="0px" y="0px"
	 viewBox="0 0 129.5 32" style="enable-background:new 0 0 129.5 32;" xml:space="preserve">
<style type="text/css">
	.st0{fill:#3C50E0;}
	.st1{fill:#FFFFFF;}
	.st2{opacity:0.9;}
	.st3{opacity:0.7;}
</style>
<path class="st0" d="M0,8.4C0,3.8,3.8,0,8.4,0h15.2C28.2,0,32,3.8,32,8.4v15.2c0,4.7-3.8,8.4-8.4,8.4H8.4C3.8,32,0,28.2,0,23.6V8.4z
	"/>
<g>
	<path class="st1" d="M8.4,8.4c0-0.9,0.8-1.7,1.7-1.7l0,0c0.9,0,1.7,0.8,1.7,1.7v15.2c0,0.9-0.8,1.7-1.7,1.7l0,0
		c-0.9,0-1.7-0.8-1.7-1.7V8.4z"/>
</g>
<g class="st2">
	<path class="st1" d="M14.7,15.2c0-0.9,0.8-1.7,1.7-1.7l0,0c0.9,0,1.7,0.8,1.7,1.7v8.4c0,0.9-0.8,1.7-1.7,1.7l0,0
		c-0.9,0-1.7-0.8-1.7-1.7V15.2z"/>
</g>
<g class="st3">
	<path class="st1" d="M21.1,10.9c0-0.9,0.8-1.7,1.7-1.7l0,0c0.9,0,1.7,0.8,1.7,1.7v12.6c0,0.9-0.8,1.7-1.7,1.7l0,0
		c-0.9,0-1.7-0.8-1.7-1.7V10.9z"/>
</g>
<g>
	<path class="st1" d="M35.4,17c0-7.9,5.3-12.7,12.1-12.7c3.6,0,6.1,1.5,7.7,3.1l-2.4,2.8c-1.3-1.2-2.8-2.1-5.2-2.1
		c-4.5,0-7.6,3.3-7.6,8.8c0,5.5,2.7,8.9,7.8,8.9c1.4,0,2.8-0.4,3.6-1.1v-5.2h-4.8V16h8.9v10.7c-1.7,1.6-4.7,2.9-8.2,2.9
		C40.6,29.5,35.4,25.1,35.4,17z"/>
	<path class="st1" d="M60,17c0-7.9,5.2-12.7,11.7-12.7c3.2,0,5.8,1.5,7.4,3.1l-2.4,2.8c-1.3-1.2-2.8-2.1-4.8-2.1
		c-4.2,0-7.1,3.3-7.1,8.8c0,5.5,2.8,8.9,7,8.9c2.3,0,4-1,5.5-2.5l2.4,2.7c-2.1,2.3-4.7,3.5-8.1,3.5C65.1,29.5,60,25.1,60,17z"/>
	<path class="st1" d="M81.2,16.9c0-7.8,4.6-12.5,11.3-12.5s11.3,4.7,11.3,12.5c0,7.8-4.6,12.7-11.3,12.7S81.2,24.7,81.2,16.9z
		 M99.1,16.9c0-5.4-2.6-8.7-6.6-8.7s-6.6,3.3-6.6,8.7c0,5.4,2.6,8.9,6.6,8.9S99.1,22.3,99.1,16.9z"/>
	<path class="st1" d="M108.9,4.8h4.7l7.9,13.6l2.6,5.2h0.2c-0.2-2.5-0.6-5.6-0.6-8.3V4.8h4.3v24.3h-4.7l-7.9-13.7l-2.6-5.2h-0.2
		c0.2,2.6,0.6,5.5,0.6,8.2v10.6h-4.3V4.8z"/>
</g>
</svg>
